<?xml version="1.0" encoding="utf-8"?>
<!-- Generator: Adobe Illustrator 15.0.0, SVG Export Plug-In . SVG Version: 6.00 Build 0)  -->
<!DOCTYPE svg PUBLIC "-//W3C//DTD SVG 1.1//EN" "http://www.w3.org/Graphics/SVG/1.1/DTD/svg11.dtd">
<svg version="1.1" id="Calque_1" xmlns="http://www.w3.org/2000/svg" xmlns:xlink="http://www.w3.org/1999/xlink" x="0px" y="0px"
	 width="231.509px" height="128.211px" viewBox="0 0 231.509 128.211" enable-background="new 0 0 231.509 128.211"
	 xml:space="preserve">
<g>
	<path fill="#FFFFFF" d="M176.693,56.379c0-17.053-33.51-56.379-33.51-56.379S109.68,39.326,109.68,56.379
		c0,11.504,4.764,22.18,14.947,27.925c-1.287-1.915-2.068-4.009-2.068-6.124c0-9.964,6.545-13.105,19.061-15.924
		c7.679-1.725,15.379-3.705,22.195-7.135v13.654c-0.462,8.357-3.629,14.424-8.464,18.238
		C169.954,82.604,176.693,70.08,176.693,56.379z"/>
	<path fill="#FFFFFF" d="M220.287,93.85c-4.979,0-8.315,1.704-10.651,4.979h-0.129V94.67h-12.042v10.591
		c-1.94-6.479-7.382-11.411-16.971-11.411c-10.185,0-15.677,5.564-17.284,12.622V94.67h-10.291h-2.187h-11.176l-3.66,6.494
		l-1.396-2.53l-2.634-4.784h-24.809c-3.069,0-6.272,0.262-9.065,1.123l-0.113-0.62c-1.201-0.313-2.397-0.503-3.659-0.503
		c-4.539,0-7.187,2.146-9.204,6.057h-0.123V94.67h-0.005v-0.82H69.684v-9.138H57.205v9.138h-8.018v-9.138H36.703v9.138H18.346
		c-7.761,0-16.457,1.515-16.837,10.718H13.11c0.062-1.387,0.821-3.336,4.666-3.336c2.017,0,4.096,0.815,4.096,3.023
		c0,2.079-1.699,2.581-3.403,2.9C12.104,108.351,0,107.976,0,118.314c0,6.867,5.23,9.896,11.534,9.896
		c4.035,0,7.88-0.883,10.528-3.912h0.123c-0.062,0.883,0.128,2.208,0.441,3.092h12.736c-1.386-2.085-1.514-4.856-1.514-7.311
		v-13.429c0-1.447,0-2.905-0.18-4.291h3.034v15.636c0,8.952,5.862,9.773,11.16,9.773l10.559-0.005c0.036,0,0.071,0.005,0.108,0.005
		c0.062,0,0.123-0.005,0.185-0.005h0.221l-0.005-0.005c5.185-0.047,10.754-1.037,10.754-9.764V102.36h3.229v25.03h12.484v-12.927
		c0-6.996,2.648-9.896,7.566-9.896h8.86c0.066-1.387,0.821-3.336,4.671-3.336c2.012,0,4.096,0.815,4.096,3.023
		c0,2.079-1.704,2.581-3.408,2.9c-6.365,1.195-18.469,0.82-18.469,11.159c0,6.867,5.236,9.896,11.54,9.896
		c4.035,0,7.875-0.883,10.522-3.912h0.129c-0.067,0.883,0.128,2.208,0.441,3.092h6.083h6.652h7.027l4.605-8.008l4.789,8.008h10.23
		h3.511h8.967v-11.858c1.607,7.073,7.1,12.679,17.284,12.679c9.589,0,15.03-4.974,16.971-11.462v10.642h12.484v-17.273
		c0-5.231,2.839-6.305,4.979-6.305c3.659,0,4.101,2.645,4.101,6.432v17.146h12.479v-22.443
		C231.509,97.442,226.149,93.85,220.287,93.85z M21.873,115.728c-0.19,3.403-2.397,5.107-5.23,5.107
		c-2.27,0-3.912-1.514-3.912-3.029c0-2.201,1.452-2.899,4.225-3.525c1.699-0.381,3.403-0.822,4.917-1.581V115.728z M57.205,113.772
		c0,2.904-0.698,4.203-3.532,4.306c-0.159,0.005-0.318,0.03-0.478,0.03s-0.318-0.025-0.477-0.03
		c-2.833-0.103-3.532-1.401-3.532-4.306V102.36h1.334h5.349h1.334V113.772z M110.59,115.728c-0.195,3.403-2.397,5.107-5.235,5.107
		c-2.269,0-3.907-1.514-3.907-3.029c0-2.201,1.447-2.899,4.225-3.525c1.699-0.381,3.404-0.822,4.917-1.581V115.728z
		 M122.566,119.639v-12.987c0-2.828,0.016-5.687-1.371-7.992h0.01l7.634,11.519L122.566,119.639z M150.732,122.174l-8.09-11.996
		l8.09-12.201V122.174z M180.494,119.131c-4.732,0-5.359-4.667-5.359-8.131c0-3.466,0.627-8.07,5.359-8.07
		c4.723,0,5.359,4.604,5.359,8.07C185.854,114.464,185.217,119.131,180.494,119.131z"/>
</g>
</svg>
