<?xml version="1.0" encoding="utf-8"?>
<!-- Generator: Adobe Illustrator 15.0.0, SVG Export Plug-In . SVG Version: 6.00 Build 0)  -->
<!DOCTYPE svg PUBLIC "-//W3C//DTD SVG 1.1//EN" "http://www.w3.org/Graphics/SVG/1.1/DTD/svg11.dtd">
<svg version="1.1" id="Calque_1" xmlns="http://www.w3.org/2000/svg" xmlns:xlink="http://www.w3.org/1999/xlink" x="0px" y="0px"
	 width="273.893px" height="47.08px" viewBox="0 0 273.893 47.08" enable-background="new 0 0 273.893 47.08" xml:space="preserve">
<g>
	<path fill="#23AAC4" d="M36.258,30.505C36.258,21.278,18.127,0,18.127,0S0,21.278,0,30.505c0,6.224,2.577,12,8.087,15.108
		c-0.697-1.036-1.12-2.168-1.12-3.313c0-5.391,3.542-7.091,10.313-8.616c4.154-0.933,8.32-2.004,12.009-3.86v7.389
		c-0.25,4.522-1.963,7.804-4.58,9.868C32.612,44.694,36.258,37.918,36.258,30.505z"/>
	<path fill="#FFFFFF" d="M262.671,9.437c-4.979,0-8.315,1.704-10.651,4.979h-0.129v-4.158h-12.042v10.591
		c-1.94-6.479-7.382-11.411-16.971-11.411c-10.185,0-15.677,5.564-17.284,12.622V10.257h-10.291h-2.187H181.94l-3.66,6.494
		l-1.396-2.53l-2.634-4.784h-24.809c-3.069,0-6.272,0.262-9.065,1.123l-0.113-0.62c-1.201-0.313-2.397-0.503-3.659-0.503
		c-4.539,0-7.187,2.146-9.204,6.057h-0.123v-5.236h-0.005v-0.82h-15.205V0.299H99.588v9.138H91.57V0.299H79.086v9.138H60.729
		c-7.761,0-16.457,1.515-16.837,10.718h11.602c0.062-1.387,0.821-3.336,4.666-3.336c2.017,0,4.096,0.815,4.096,3.023
		c0,2.079-1.699,2.581-3.403,2.9c-6.365,1.195-18.469,0.82-18.469,11.159c0,6.867,5.23,9.896,11.534,9.896
		c4.035,0,7.88-0.883,10.528-3.912h0.123c-0.062,0.883,0.128,2.208,0.441,3.092h12.736c-1.386-2.085-1.514-4.856-1.514-7.311V22.238
		c0-1.447,0-2.905-0.18-4.291h3.034v15.636c0,8.952,5.862,9.773,11.16,9.773l10.559-0.005c0.036,0,0.071,0.005,0.108,0.005
		c0.062,0,0.123-0.005,0.185-0.005h0.221l-0.005-0.005c5.185-0.047,10.754-1.037,10.754-9.764V17.947h3.229v25.03h12.484V30.051
		c0-6.996,2.648-9.896,7.566-9.896h8.86c0.066-1.387,0.821-3.336,4.671-3.336c2.012,0,4.096,0.815,4.096,3.023
		c0,2.079-1.704,2.581-3.408,2.9c-6.365,1.195-18.469,0.82-18.469,11.159c0,6.867,5.236,9.896,11.54,9.896
		c4.035,0,7.875-0.883,10.522-3.912h0.129c-0.067,0.883,0.128,2.208,0.441,3.092h6.083h6.652h7.027l4.605-8.008l4.789,8.008h10.23
		h3.511h8.967V31.119c1.607,7.073,7.1,12.679,17.284,12.679c9.589,0,15.03-4.974,16.971-11.462v10.642h12.484V25.704
		c0-5.231,2.839-6.305,4.979-6.305c3.659,0,4.101,2.645,4.101,6.432v17.146h12.479V20.534
		C273.893,13.029,268.533,9.437,262.671,9.437z M64.256,31.314c-0.19,3.403-2.397,5.107-5.23,5.107c-2.27,0-3.912-1.514-3.912-3.029
		c0-2.201,1.452-2.899,4.225-3.525c1.699-0.381,3.403-0.822,4.917-1.581V31.314z M99.588,29.359c0,2.904-0.698,4.203-3.532,4.306
		c-0.159,0.005-0.318,0.03-0.478,0.03s-0.318-0.025-0.477-0.03c-2.833-0.103-3.532-1.401-3.532-4.306V17.947h1.334h5.349h1.334
		V29.359z M152.974,31.314c-0.195,3.403-2.397,5.107-5.235,5.107c-2.269,0-3.907-1.514-3.907-3.029c0-2.201,1.447-2.899,4.225-3.525
		c1.699-0.381,3.404-0.822,4.917-1.581V31.314z M164.95,35.226V22.238c0-2.828,0.016-5.687-1.371-7.992h0.01l7.634,11.519
		L164.95,35.226z M193.116,37.761l-8.09-11.996l8.09-12.201V37.761z M222.878,34.718c-4.732,0-5.359-4.667-5.359-8.131
		c0-3.466,0.627-8.07,5.359-8.07c4.723,0,5.359,4.604,5.359,8.07C228.237,30.051,227.601,34.718,222.878,34.718z"/>
</g>
</svg>
